<svg xmlns="http://www.w3.org/2000/svg" xmlns:xlink="http://www.w3.org/1999/xlink" id="processonSvg1000" viewBox="107.0 26.0 894.0 1417.0" width="894.0" height="1417.0"><defs id="ProcessOnDefs1001"><marker id="ProcessOnMarker1058" markerUnits="userSpaceOnUse" orient="auto" markerWidth="16.23606797749979" markerHeight="10.550836550532098" viewBox="-1.0 -1.3763819204711736 16.23606797749979 10.550836550532098" refX="-1.0" refY="3.8990363547948754"><path id="ProcessOnPath1059" d="M12.0 3.8990363547948754L0.0 7.798072709589751V0.0Z" stroke="#323232" stroke-width="2.0" fill="#323232" transform="matrix(1.0,0.0,0.0,1.0,0.0,0.0)"/></marker><marker id="ProcessOnMarker1062" markerUnits="userSpaceOnUse" orient="auto" markerWidth="16.23606797749979" markerHeight="10.550836550532098" viewBox="-1.0 -1.3763819204711736 16.23606797749979 10.550836550532098" refX="-1.0" refY="3.8990363547948754"><path id="ProcessOnPath1063" d="M12.0 3.8990363547948754L0.0 7.798072709589751V0.0Z" stroke="#323232" stroke-width="2.0" fill="#323232" transform="matrix(1.0,0.0,0.0,1.0,0.0,0.0)"/></marker><marker id="ProcessOnMarker1066" markerUnits="userSpaceOnUse" orient="auto" markerWidth="16.23606797749979" markerHeight="10.550836550532098" viewBox="-1.0 -1.3763819204711736 16.23606797749979 10.550836550532098" refX="-1.0" refY="3.8990363547948754"><path id="ProcessOnPath1067" d="M12.0 3.8990363547948754L0.0 7.798072709589751V0.0Z" stroke="#323232" stroke-width="2.0" fill="#323232" transform="matrix(1.0,0.0,0.0,1.0,0.0,0.0)"/></marker><marker id="ProcessOnMarker1073" markerUnits="userSpaceOnUse" orient="auto" markerWidth="16.23606797749979" markerHeight="10.550836550532098" viewBox="-1.0 -1.3763819204711736 16.23606797749979 10.550836550532098" refX="-1.0" refY="3.8990363547948754"><path id="ProcessOnPath1074" d="M12.0 3.8990363547948754L0.0 7.798072709589751V0.0Z" stroke="#323232" stroke-width="2.0" fill="#323232" transform="matrix(1.0,0.0,0.0,1.0,0.0,0.0)"/></marker><marker id="ProcessOnMarker1080" markerUnits="userSpaceOnUse" orient="auto" markerWidth="16.23606797749979" markerHeight="10.550836550532098" viewBox="-1.0 -1.3763819204711736 16.23606797749979 10.550836550532098" refX="-1.0" refY="3.8990363547948754"><path id="ProcessOnPath1081" d="M12.0 3.8990363547948754L0.0 7.798072709589751V0.0Z" stroke="#323232" stroke-width="2.0" fill="#323232" transform="matrix(1.0,0.0,0.0,1.0,0.0,0.0)"/></marker><marker id="ProcessOnMarker1089" markerUnits="userSpaceOnUse" orient="auto" markerWidth="16.23606797749979" markerHeight="10.550836550532098" viewBox="-1.0 -1.3763819204711736 16.23606797749979 10.550836550532098" refX="-1.0" refY="3.8990363547948754"><path id="ProcessOnPath1090" d="M12.0 3.8990363547948754L0.0 7.798072709589751V0.0Z" stroke="#323232" stroke-width="2.0" fill="#323232" transform="matrix(1.0,0.0,0.0,1.0,0.0,0.0)"/></marker><marker id="ProcessOnMarker1101" markerUnits="userSpaceOnUse" orient="auto" markerWidth="16.23606797749979" markerHeight="10.550836550532098" viewBox="-1.0 -1.3763819204711736 16.23606797749979 10.550836550532098" refX="-1.0" refY="3.8990363547948754"><path id="ProcessOnPath1102" d="M12.0 3.8990363547948754L0.0 7.798072709589751V0.0Z" stroke="#323232" stroke-width="2.0" fill="#323232" transform="matrix(1.0,0.0,0.0,1.0,0.0,0.0)"/></marker><marker id="ProcessOnMarker1110" markerUnits="userSpaceOnUse" orient="auto" markerWidth="16.23606797749979" markerHeight="10.550836550532098" viewBox="-1.0 -1.3763819204711736 16.23606797749979 10.550836550532098" refX="-1.0" refY="3.8990363547948754"><path id="ProcessOnPath1111" d="M12.0 3.8990363547948754L0.0 7.798072709589751V0.0Z" stroke="#323232" stroke-width="2.0" fill="#323232" transform="matrix(1.0,0.0,0.0,1.0,0.0,0.0)"/></marker><marker id="ProcessOnMarker1118" markerUnits="userSpaceOnUse" orient="auto" markerWidth="16.23606797749979" markerHeight="10.550836550532098" viewBox="-1.0 -1.3763819204711736 16.23606797749979 10.550836550532098" refX="-1.0" refY="3.8990363547948754"><path id="ProcessOnPath1119" d="M12.0 3.8990363547948754L0.0 7.798072709589751V0.0Z" stroke="#323232" stroke-width="2.0" fill="#323232" transform="matrix(1.0,0.0,0.0,1.0,0.0,0.0)"/></marker><marker id="ProcessOnMarker1129" markerUnits="userSpaceOnUse" orient="auto" markerWidth="16.23606797749979" markerHeight="10.550836550532098" viewBox="-1.0 -1.3763819204711736 16.23606797749979 10.550836550532098" refX="-1.0" refY="3.8990363547948754"><path id="ProcessOnPath1130" d="M12.0 3.8990363547948754L0.0 7.798072709589751V0.0Z" stroke="#323232" stroke-width="2.0" fill="#323232" transform="matrix(1.0,0.0,0.0,1.0,0.0,0.0)"/></marker><marker id="ProcessOnMarker1138" markerUnits="userSpaceOnUse" orient="auto" markerWidth="16.23606797749979" markerHeight="10.550836550532098" viewBox="-1.0 -1.3763819204711736 16.23606797749979 10.550836550532098" refX="-1.0" refY="3.8990363547948754"><path id="ProcessOnPath1139" d="M12.0 3.8990363547948754L0.0 7.798072709589751V0.0Z" stroke="#323232" stroke-width="2.0" fill="#323232" transform="matrix(1.0,0.0,0.0,1.0,0.0,0.0)"/></marker><marker id="ProcessOnMarker1151" markerUnits="userSpaceOnUse" orient="auto" markerWidth="16.23606797749979" markerHeight="10.550836550532098" viewBox="-1.0 -1.3763819204711736 16.23606797749979 10.550836550532098" refX="-1.0" refY="3.8990363547948754"><path id="ProcessOnPath1152" d="M12.0 3.8990363547948754L0.0 7.798072709589751V0.0Z" stroke="#323232" stroke-width="2.0" fill="#323232" transform="matrix(1.0,0.0,0.0,1.0,0.0,0.0)"/></marker><marker id="ProcessOnMarker1158" markerUnits="userSpaceOnUse" orient="auto" markerWidth="16.23606797749979" markerHeight="10.550836550532098" viewBox="-1.0 -1.3763819204711736 16.23606797749979 10.550836550532098" refX="-1.0" refY="3.8990363547948754"><path id="ProcessOnPath1159" d="M12.0 3.8990363547948754L0.0 7.798072709589751V0.0Z" stroke="#323232" stroke-width="2.0" fill="#323232" transform="matrix(1.0,0.0,0.0,1.0,0.0,0.0)"/></marker><marker id="ProcessOnMarker1168" markerUnits="userSpaceOnUse" orient="auto" markerWidth="16.23606797749979" markerHeight="10.550836550532098" viewBox="-1.0 -1.3763819204711736 16.23606797749979 10.550836550532098" refX="-1.0" refY="3.8990363547948754"><path id="ProcessOnPath1169" d="M12.0 3.8990363547948754L0.0 7.798072709589751V0.0Z" stroke="#323232" stroke-width="2.0" fill="#323232" transform="matrix(1.0,0.0,0.0,1.0,0.0,0.0)"/></marker><marker id="ProcessOnMarker1181" markerUnits="userSpaceOnUse" orient="auto" markerWidth="16.23606797749979" markerHeight="10.550836550532098" viewBox="-1.0 -1.3763819204711736 16.23606797749979 10.550836550532098" refX="-1.0" refY="3.8990363547948754"><path id="ProcessOnPath1182" d="M12.0 3.8990363547948754L0.0 7.798072709589751V0.0Z" stroke="#323232" stroke-width="2.0" fill="#323232" transform="matrix(1.0,0.0,0.0,1.0,0.0,0.0)"/></marker><marker id="ProcessOnMarker1192" markerUnits="userSpaceOnUse" orient="auto" markerWidth="16.23606797749979" markerHeight="10.550836550532098" viewBox="-1.0 -1.3763819204711736 16.23606797749979 10.550836550532098" refX="-1.0" refY="3.8990363547948754"><path id="ProcessOnPath1193" d="M12.0 3.8990363547948754L0.0 7.798072709589751V0.0Z" stroke="#323232" stroke-width="2.0" fill="#323232" transform="matrix(1.0,0.0,0.0,1.0,0.0,0.0)"/></marker><marker id="ProcessOnMarker1204" markerUnits="userSpaceOnUse" orient="auto" markerWidth="16.23606797749979" markerHeight="10.550836550532098" viewBox="-1.0 -1.3763819204711736 16.23606797749979 10.550836550532098" refX="-1.0" refY="3.8990363547948754"><path id="ProcessOnPath1205" d="M12.0 3.8990363547948754L0.0 7.798072709589751V0.0Z" stroke="#323232" stroke-width="2.0" fill="#323232" transform="matrix(1.0,0.0,0.0,1.0,0.0,0.0)"/></marker><marker id="ProcessOnMarker1211" markerUnits="userSpaceOnUse" orient="auto" markerWidth="16.23606797749979" markerHeight="10.550836550532098" viewBox="-1.0 -1.3763819204711736 16.23606797749979 10.550836550532098" refX="-1.0" refY="3.8990363547948754"><path id="ProcessOnPath1212" d="M12.0 3.8990363547948754L0.0 7.798072709589751V0.0Z" stroke="#323232" stroke-width="2.0" fill="#323232" transform="matrix(1.0,0.0,0.0,1.0,0.0,0.0)"/></marker><marker id="ProcessOnMarker1235" markerUnits="userSpaceOnUse" orient="auto" markerWidth="16.23606797749979" markerHeight="10.550836550532098" viewBox="-1.0 -1.3763819204711736 16.23606797749979 10.550836550532098" refX="-1.0" refY="3.8990363547948754"><path id="ProcessOnPath1236" d="M12.0 3.8990363547948754L0.0 7.798072709589751V0.0Z" stroke="#323232" stroke-width="2.0" fill="#323232" transform="matrix(1.0,0.0,0.0,1.0,0.0,0.0)"/></marker><marker id="ProcessOnMarker1242" markerUnits="userSpaceOnUse" orient="auto" markerWidth="16.23606797749979" markerHeight="10.550836550532098" viewBox="-1.0 -1.3763819204711736 16.23606797749979 10.550836550532098" refX="-1.0" refY="3.8990363547948754"><path id="ProcessOnPath1243" d="M12.0 3.8990363547948754L0.0 7.798072709589751V0.0Z" stroke="#323232" stroke-width="2.0" fill="#323232" transform="matrix(1.0,0.0,0.0,1.0,0.0,0.0)"/></marker><marker id="ProcessOnMarker1251" markerUnits="userSpaceOnUse" orient="auto" markerWidth="16.23606797749979" markerHeight="10.550836550532098" viewBox="-1.0 -1.3763819204711736 16.23606797749979 10.550836550532098" refX="-1.0" refY="3.8990363547948754"><path id="ProcessOnPath1252" d="M12.0 3.8990363547948754L0.0 7.798072709589751V0.0Z" stroke="#323232" stroke-width="2.0" fill="#323232" transform="matrix(1.0,0.0,0.0,1.0,0.0,0.0)"/></marker></defs><g id="ProcessOnG1002"><path id="ProcessOnPath1003" d="M107.0 26.0H1001.0V1443.0H107.0V26.0Z" fill="none"/><g id="ProcessOnG1004"><g id="ProcessOnG1005" transform="matrix(1.0,0.0,0.0,1.0,127.0,46.0)" opacity="1.0"><path id="ProcessOnPath1006" d="M0.0 0.0L854.0 0.0L854.0 1377.0L0.0 1377.0Z" stroke="#323232" stroke-width="2.0" stroke-dasharray="none" opacity="1.0" fill="none"/><path id="ProcessOnPath1007" d="M0.0 0.0L854.0 0.0L854.0 40.0L0.0 40.0Z" stroke="#323232" stroke-width="2.0" stroke-dasharray="none" opacity="1.0" fill="#ffffff"/><g id="ProcessOnG1008" transform="matrix(1.0,0.0,0.0,1.0,10.0,10.0)"><text id="ProcessOnText1009" fill="#000000" font-size="16" x="416.0" y="16.4" font-family="微软雅黑" font-weight="normal" font-style="normal" text-decoration="none" family="微软雅黑" text-anchor="middle" size="16">游戏付费与服务器交互时序图v0.1</text></g></g><g id="ProcessOnG1010" transform="matrix(1.0,0.0,0.0,1.0,127.0,86.0)" opacity="1.0"><path id="ProcessOnPath1011" d="M0.0 0.0L229.0 0.0L229.0 1337.0L0.0 1337.0Z" stroke="#323232" stroke-width="2.0" stroke-dasharray="none" opacity="1.0" fill="none"/><path id="ProcessOnPath1012" d="M0.0 0.0L229.0 0.0L229.0 30.0L0.0 30.0Z" stroke="#323232" stroke-width="2.0" stroke-dasharray="none" opacity="1.0" fill="#ffffff"/><g id="ProcessOnG1013" transform="matrix(1.0,0.0,0.0,1.0,10.0,6.875)"><text id="ProcessOnText1014" fill="#000000" font-size="13" x="103.5" y="13.325" font-family="微软雅黑" font-weight="normal" font-style="normal" text-decoration="none" family="微软雅黑" text-anchor="middle" size="13">用户</text></g></g><g id="ProcessOnG1015" transform="matrix(1.0,0.0,0.0,1.0,356.0,86.0)" opacity="1.0"><path id="ProcessOnPath1016" d="M0.0 0.0L222.0 0.0L222.0 1337.0L0.0 1337.0Z" stroke="#323232" stroke-width="2.0" stroke-dasharray="none" opacity="1.0" fill="none"/><path id="ProcessOnPath1017" d="M0.0 0.0L222.0 0.0L222.0 30.0L0.0 30.0Z" stroke="#323232" stroke-width="2.0" stroke-dasharray="none" opacity="1.0" fill="#ffffff"/><g id="ProcessOnG1018" transform="matrix(1.0,0.0,0.0,1.0,10.0,6.875)"><text id="ProcessOnText1019" fill="#000000" font-size="13" x="100.0" y="13.325" font-family="微软雅黑" font-weight="normal" font-style="normal" text-decoration="none" family="微软雅黑" text-anchor="middle" size="13">PS主机（游戏）</text></g></g><g id="ProcessOnG1020" transform="matrix(1.0,0.0,0.0,1.0,578.0,86.0)" opacity="1.0"><path id="ProcessOnPath1021" d="M0.0 0.0L229.0 0.0L229.0 1337.0L0.0 1337.0Z" stroke="#323232" stroke-width="2.0" stroke-dasharray="none" opacity="1.0" fill="none"/><path id="ProcessOnPath1022" d="M0.0 0.0L229.0 0.0L229.0 30.0L0.0 30.0Z" stroke="#323232" stroke-width="2.0" stroke-dasharray="none" opacity="1.0" fill="#ffffff"/><g id="ProcessOnG1023" transform="matrix(1.0,0.0,0.0,1.0,10.0,6.875)"><text id="ProcessOnText1024" fill="#000000" font-size="13" x="103.5" y="13.325" font-family="微软雅黑" font-weight="normal" font-style="normal" text-decoration="none" family="微软雅黑" text-anchor="middle" size="13">付费控制服务器</text></g></g><g id="ProcessOnG1025" transform="matrix(1.0,0.0,0.0,1.0,183.0,165.54166666666669)" opacity="1.0"><path id="ProcessOnPath1026" d="M11.266203703703704 0.0L100.73379629629629 0.0C115.7554012345679 0.0 115.7554012345679 33.798611111111114 100.73379629629629 33.798611111111114L11.266203703703704 33.798611111111114C-3.7554012345679015 33.798611111111114 -3.7554012345679015 0.0 11.266203703703704 0.0Z" stroke="#4d9900" stroke-width="2.0" stroke-dasharray="none" opacity="1.0" fill="#4d9900"/><g id="ProcessOnG1027" transform="matrix(1.0,0.0,0.0,1.0,10.0,8.774305555555557)"><text id="ProcessOnText1028" fill="#000000" font-size="13" x="45.0" y="13.325" font-family="微软雅黑" font-weight="normal" font-style="normal" text-decoration="none" family="微软雅黑" text-anchor="middle" size="13">打开主机</text></g></g><g id="ProcessOnG1029" transform="matrix(1.0,0.0,0.0,1.0,407.75,159.88194444444446)" opacity="1.0"><path id="ProcessOnPath1030" d="M0.0 0.0L82.0 0.0L82.0 45.11805555555554L0.0 45.11805555555554Z" stroke="#99ccff" stroke-width="2.0" stroke-dasharray="none" opacity="1.0" fill="#99ccff"/><g id="ProcessOnG1031" transform="matrix(1.0,0.0,0.0,1.0,10.0,14.434027777777771)"><text id="ProcessOnText1032" fill="#000000" font-size="13" x="30.0" y="13.325" font-family="微软雅黑" font-weight="normal" font-style="normal" text-decoration="none" family="微软雅黑" text-anchor="middle" size="13">游戏中</text></g></g><g id="ProcessOnG1033" transform="matrix(1.0,0.0,0.0,1.0,407.79999999999995,233.88194444444446)" opacity="1.0"><path id="ProcessOnPath1034" d="M0.0 28.25L40.94999999999999 0.0L81.89999999999998 28.25L40.94999999999999 56.5L0.0 28.25Z" stroke="#ff8000" stroke-width="2.0" stroke-dasharray="none" opacity="1.0" fill="#ff8000"/><g id="ProcessOnG1035" transform="matrix(1.0,0.0,0.0,1.0,10.0,20.125)"><text id="ProcessOnText1036" fill="#000000" font-size="13" x="29.94999999999999" y="13.325" font-family="微软雅黑" font-weight="normal" font-style="normal" text-decoration="none" family="微软雅黑" text-anchor="middle" size="13">游戏失败</text></g></g><g id="ProcessOnG1037" transform="matrix(1.0,0.0,0.0,1.0,373.75,339.0)" opacity="1.0"><path id="ProcessOnPath1038" d="M0.0 0.0L150.0 0.0L150.0 48.55034722222223L0.0 48.55034722222223Z" stroke="#99ccff" stroke-width="2.0" stroke-dasharray="none" opacity="1.0" fill="#99ccff"/><g id="ProcessOnG1039" transform="matrix(1.0,0.0,0.0,1.0,10.0,8.025173611111114)"><text id="ProcessOnText1040" fill="#000000" font-size="13" x="64.0" y="13.325" font-family="微软雅黑" font-weight="normal" font-style="normal" text-decoration="none" family="微软雅黑" text-anchor="middle" size="13">弹出对话框，要求用</text><text id="ProcessOnText1041" fill="#000000" font-size="13" x="64.0" y="29.575" font-family="微软雅黑" font-weight="normal" font-style="normal" text-decoration="none" family="微软雅黑" text-anchor="middle" size="13">户输入code</text></g></g><g id="ProcessOnG1042" transform="matrix(1.0,0.0,0.0,1.0,623.0,155.94097222222223)" opacity="1.0"><path id="ProcessOnPath1043" d="M0.0 0.0L127.0 0.0L127.0 49.05902777777777L0.0 49.05902777777777Z" stroke="#99ccff" stroke-width="2.0" stroke-dasharray="none" opacity="1.0" fill="#99ccff"/><g id="ProcessOnG1044" transform="matrix(1.0,0.0,0.0,1.0,10.0,8.279513888888886)"><text id="ProcessOnText1045" fill="#000000" font-size="13" x="52.5" y="13.325" font-family="微软雅黑" font-weight="normal" font-style="normal" text-decoration="none" family="微软雅黑" text-anchor="middle" size="13">记录机器和游戏启</text><text id="ProcessOnText1046" fill="#000000" font-size="13" x="52.5" y="29.575" font-family="微软雅黑" font-weight="normal" font-style="normal" text-decoration="none" family="微软雅黑" text-anchor="middle" size="13">动信息</text></g></g><g id="ProcessOnG1047" transform="matrix(1.0,0.0,0.0,1.0,807.0,86.0)" opacity="1.0"><path id="ProcessOnPath1048" d="M0.0 0.0L174.0 0.0L174.0 1337.0L0.0 1337.0Z" stroke="#323232" stroke-width="2.0" stroke-dasharray="none" opacity="1.0" fill="none"/><path id="ProcessOnPath1049" d="M0.0 0.0L174.0 0.0L174.0 30.0L0.0 30.0Z" stroke="#323232" stroke-width="2.0" stroke-dasharray="none" opacity="1.0" fill="#ffffff"/><g id="ProcessOnG1050" transform="matrix(1.0,0.0,0.0,1.0,10.0,6.875)"><text id="ProcessOnText1051" fill="#000000" font-size="13" x="76.0" y="13.325" font-family="微软雅黑" font-weight="normal" font-style="normal" text-decoration="none" family="微软雅黑" text-anchor="middle" size="13">微信公众号服务器</text></g></g><g id="ProcessOnG1052" transform="matrix(1.0,0.0,0.0,1.0,837.0,422.75)" opacity="1.0"><path id="ProcessOnPath1053" d="M0.0 0.0L104.5 0.0L104.5 46.5L0.0 46.5Z" stroke="#99ccff" stroke-width="2.0" stroke-dasharray="none" opacity="1.0" fill="#99ccff"/><g id="ProcessOnG1054" transform="matrix(1.0,0.0,0.0,1.0,10.0,15.125)"><text id="ProcessOnText1055" fill="#000000" font-size="13" x="41.25" y="13.325" font-family="微软雅黑" font-weight="normal" font-style="normal" text-decoration="none" family="微软雅黑" text-anchor="middle" size="13">获得机器信息</text></g></g><g id="ProcessOnG1056"><path id="ProcessOnPath1057" d="M295.0 182.44097222222223L351.375 182.44097222222223L351.375 182.44097222222223L392.5139320225002 182.44097222222223" stroke="#323232" stroke-width="2.0" stroke-dasharray="none" fill="none" marker-end="url(#ProcessOnMarker1058)"/></g><g id="ProcessOnG1060"><path id="ProcessOnPath1061" d="M448.75 205.0L448.75 219.44097222222223L448.75 219.44097222222223L448.75 220.44097222222223" stroke="#323232" stroke-width="2.0" stroke-dasharray="none" fill="none" marker-end="url(#ProcessOnMarker1062)"/></g><g id="ProcessOnG1064"><path id="ProcessOnPath1065" d="M489.69999999999993 262.13194444444446L519.75 262.13194444444446L519.75 182.44097222222223L504.9860679774998 182.44097222222223" stroke="#323232" stroke-width="2.0" stroke-dasharray="none" fill="none" marker-end="url(#ProcessOnMarker1066)"/><g id="ProcessOnG1068" transform="matrix(1.0,0.0,0.0,1.0,519.75,221.80449232208326)"><path id="ProcessOnPath1069" d="M0 0H13.0V16.25H0Z" fill="#fff" transform="matrix(1.0,0.0,0.0,1.0,-6.5,0.0)"/><text id="ProcessOnText1070" fill="#000000" font-size="13" x="0.0" y="13.325" font-family="微软雅黑" font-weight="normal" font-style="normal" text-decoration="none" family="微软雅黑" text-anchor="middle" size="13">否</text></g></g><g id="ProcessOnG1071"><path id="ProcessOnPath1072" d="M448.75 290.38194444444446L448.75 314.69097222222223L448.75 314.69097222222223L448.75 323.7639320225002" stroke="#323232" stroke-width="2.0" stroke-dasharray="none" fill="none" marker-end="url(#ProcessOnMarker1073)"/><g id="ProcessOnG1075" transform="matrix(1.0,0.0,0.0,1.0,448.75,298.9479382334723)"><path id="ProcessOnPath1076" d="M0 0H13.0V16.25H0Z" fill="#fff" transform="matrix(1.0,0.0,0.0,1.0,-6.5,0.0)"/><text id="ProcessOnText1077" fill="#000000" font-size="13" x="0.0" y="13.325" font-family="微软雅黑" font-weight="normal" font-style="normal" text-decoration="none" family="微软雅黑" text-anchor="middle" size="13">是</text></g></g><g id="ProcessOnG1078"><path id="ProcessOnPath1079" d="M448.75 159.88194444444446L448.75 125.94097222222223L686.5 125.94097222222223L686.5 140.70490424472243" stroke="#323232" stroke-width="2.0" stroke-dasharray="none" fill="none" marker-end="url(#ProcessOnMarker1080)"/></g><g id="ProcessOnG1082" transform="matrix(1.0,0.0,0.0,1.0,183.0,425.5)" opacity="1.0"><path id="ProcessOnPath1083" d="M13.666666666666666 0.0L98.33333333333333 0.0C116.55555555555556 0.0 116.55555555555556 41.0 98.33333333333333 41.0L13.666666666666666 41.0C-4.555555555555555 41.0 -4.555555555555555 0.0 13.666666666666666 0.0Z" stroke="#4d9900" stroke-width="2.0" stroke-dasharray="none" opacity="1.0" fill="#4d9900"/><g id="ProcessOnG1084" transform="matrix(1.0,0.0,0.0,1.0,10.0,4.25)"><text id="ProcessOnText1085" fill="#000000" font-size="13" x="45.0" y="13.325" font-family="微软雅黑" font-weight="normal" font-style="normal" text-decoration="none" family="微软雅黑" text-anchor="middle" size="13">扫描机器二维</text><text id="ProcessOnText1086" fill="#000000" font-size="13" x="45.0" y="29.575" font-family="微软雅黑" font-weight="normal" font-style="normal" text-decoration="none" family="微软雅黑" text-anchor="middle" size="13">码</text></g></g><g id="ProcessOnG1087"><path id="ProcessOnPath1088" d="M295.0 446.0L566.0 446.0L566.0 446.0L821.7639320225002 446.0" stroke="#323232" stroke-width="2.0" stroke-dasharray="none" fill="none" marker-end="url(#ProcessOnMarker1089)"/><g id="ProcessOnG1091" transform="matrix(1.0,0.0,0.0,1.0,558.3819660112501,437.875)"><path id="ProcessOnPath1092" d="M0 0H117.0V16.25H0Z" fill="#fff" transform="matrix(1.0,0.0,0.0,1.0,-58.5,0.0)"/><text id="ProcessOnText1093" fill="#000000" font-size="13" x="0.0" y="13.325" font-family="微软雅黑" font-weight="normal" font-style="normal" text-decoration="none" family="微软雅黑" text-anchor="middle" size="13">获得用户的微信信息</text></g></g><g id="ProcessOnG1094" transform="matrix(1.0,0.0,0.0,1.0,634.25,500.75)" opacity="1.0"><path id="ProcessOnPath1095" d="M0.0 0.0L104.5 0.0L104.5 46.5L0.0 46.5Z" stroke="#99ccff" stroke-width="2.0" stroke-dasharray="none" opacity="1.0" fill="#99ccff"/><g id="ProcessOnG1096" transform="matrix(1.0,0.0,0.0,1.0,10.0,7.0)"><text id="ProcessOnText1097" fill="#000000" font-size="13" x="41.25" y="13.325" font-family="微软雅黑" font-weight="normal" font-style="normal" text-decoration="none" family="微软雅黑" text-anchor="middle" size="13">查找机器对应</text><text id="ProcessOnText1098" fill="#000000" font-size="13" x="41.25" y="29.575" font-family="微软雅黑" font-weight="normal" font-style="normal" text-decoration="none" family="微软雅黑" text-anchor="middle" size="13">的游戏信息</text></g></g><g id="ProcessOnG1099"><path id="ProcessOnPath1100" d="M889.25 469.25L889.25 524.0L753.9860679774998 524.0" stroke="#323232" stroke-width="2.0" stroke-dasharray="none" fill="none" marker-end="url(#ProcessOnMarker1101)"/></g><g id="ProcessOnG1103" transform="matrix(1.0,0.0,0.0,1.0,837.0,632.75)" opacity="1.0"><path id="ProcessOnPath1104" d="M0.0 0.0L104.5 0.0L104.5 46.5L0.0 46.5Z" stroke="#99ccff" stroke-width="2.0" stroke-dasharray="none" opacity="1.0" fill="#99ccff"/><g id="ProcessOnG1105" transform="matrix(1.0,0.0,0.0,1.0,10.0,7.0)"><text id="ProcessOnText1106" fill="#000000" font-size="13" x="41.25" y="13.325" font-family="微软雅黑" font-weight="normal" font-style="normal" text-decoration="none" family="微软雅黑" text-anchor="middle" size="13">H5页面跳转</text><text id="ProcessOnText1107" fill="#000000" font-size="13" x="41.25" y="29.575" font-family="微软雅黑" font-weight="normal" font-style="normal" text-decoration="none" family="微软雅黑" text-anchor="middle" size="13">到付费页面</text></g></g><g id="ProcessOnG1108"><path id="ProcessOnPath1109" d="M686.5 547.25L686.5 590.0L889.25 590.0L889.25 617.5139320225002" stroke="#323232" stroke-width="2.0" stroke-dasharray="none" fill="none" marker-end="url(#ProcessOnMarker1110)"/></g><g id="ProcessOnG1112" transform="matrix(1.0,0.0,0.0,1.0,183.0,635.5)" opacity="1.0"><path id="ProcessOnPath1113" d="M13.666666666666666 0.0L98.33333333333333 0.0C116.55555555555556 0.0 116.55555555555556 41.0 98.33333333333333 41.0L13.666666666666666 41.0C-4.555555555555555 41.0 -4.555555555555555 0.0 13.666666666666666 0.0Z" stroke="#4d9900" stroke-width="2.0" stroke-dasharray="none" opacity="1.0" fill="#4d9900"/><g id="ProcessOnG1114" transform="matrix(1.0,0.0,0.0,1.0,10.0,12.375)"><text id="ProcessOnText1115" fill="#000000" font-size="13" x="45.0" y="13.325" font-family="微软雅黑" font-weight="normal" font-style="normal" text-decoration="none" family="微软雅黑" text-anchor="middle" size="13">用户付费</text></g></g><g id="ProcessOnG1116"><path id="ProcessOnPath1117" d="M295.0 656.0L566.0 656.0L566.0 656.0L821.7639320225002 656.0" stroke="#323232" stroke-width="2.0" stroke-dasharray="none" fill="none" marker-end="url(#ProcessOnMarker1118)"/><g id="ProcessOnG1120" transform="matrix(1.0,0.0,0.0,1.0,558.3819660112501,647.875)"><path id="ProcessOnPath1121" d="M0 0H78.0V16.25H0Z" fill="#fff" transform="matrix(1.0,0.0,0.0,1.0,-39.0,0.0)"/><text id="ProcessOnText1122" fill="#000000" font-size="13" x="0.0" y="13.325" font-family="微软雅黑" font-weight="normal" font-style="normal" text-decoration="none" family="微软雅黑" text-anchor="middle" size="13">输入付费密码</text></g></g><g id="ProcessOnG1123" transform="matrix(1.0,0.0,0.0,1.0,848.3000000000001,713.75)" opacity="1.0"><path id="ProcessOnPath1124" d="M0.0 28.25L40.94999999999999 0.0L81.89999999999998 28.25L40.94999999999999 56.5L0.0 28.25Z" stroke="#ff8000" stroke-width="2.0" stroke-dasharray="none" opacity="1.0" fill="#ff8000"/><g id="ProcessOnG1125" transform="matrix(1.0,0.0,0.0,1.0,10.0,20.125)"><text id="ProcessOnText1126" fill="#000000" font-size="13" x="29.94999999999999" y="13.325" font-family="微软雅黑" font-weight="normal" font-style="normal" text-decoration="none" family="微软雅黑" text-anchor="middle" size="13">付费成功</text></g></g><g id="ProcessOnG1127"><path id="ProcessOnPath1128" d="M889.25 679.25L889.25 696.5L889.2500000000001 696.5L889.2500000000001 698.5139320225002" stroke="#323232" stroke-width="2.0" stroke-dasharray="none" fill="none" marker-end="url(#ProcessOnMarker1129)"/></g><g id="ProcessOnG1131" transform="matrix(1.0,0.0,0.0,1.0,822.25,828.75)" opacity="1.0"><path id="ProcessOnPath1132" d="M0.0 0.0L134.0 0.0L134.0 46.5L0.0 46.5Z" stroke="#99ccff" stroke-width="2.0" stroke-dasharray="none" opacity="1.0" fill="#99ccff"/><g id="ProcessOnG1133" transform="matrix(1.0,0.0,0.0,1.0,10.0,7.0)"><text id="ProcessOnText1134" fill="#000000" font-size="13" x="56.0" y="13.325" font-family="微软雅黑" font-weight="normal" font-style="normal" text-decoration="none" family="微软雅黑" text-anchor="middle" size="13">获得支付结果，机</text><text id="ProcessOnText1135" fill="#000000" font-size="13" x="56.0" y="29.575" font-family="微软雅黑" font-weight="normal" font-style="normal" text-decoration="none" family="微软雅黑" text-anchor="middle" size="13">器信息，游戏信息</text></g></g><g id="ProcessOnG1136"><path id="ProcessOnPath1137" d="M889.25 770.25L889.25 799.5L889.25 799.5L889.25 813.5139320225002" stroke="#323232" stroke-width="2.0" stroke-dasharray="none" fill="none" marker-end="url(#ProcessOnMarker1138)"/><g id="ProcessOnG1140" transform="matrix(1.0,0.0,0.0,1.0,889.25,783.7569660112501)"><path id="ProcessOnPath1141" d="M0 0H13.0V16.25H0Z" fill="#fff" transform="matrix(1.0,0.0,0.0,1.0,-6.5,0.0)"/><text id="ProcessOnText1142" fill="#000000" font-size="13" x="0.0" y="13.325" font-family="微软雅黑" font-weight="normal" font-style="normal" text-decoration="none" family="微软雅黑" text-anchor="middle" size="13">是</text></g></g><g id="ProcessOnG1143" transform="matrix(1.0,0.0,0.0,1.0,615.125,828.75)" opacity="1.0"><path id="ProcessOnPath1144" d="M0.0 0.0L142.75 0.0L142.75 46.5L0.0 46.5Z" stroke="#99ccff" stroke-width="2.0" stroke-dasharray="none" opacity="1.0" fill="#99ccff"/><g id="ProcessOnG1145" transform="matrix(1.0,0.0,0.0,1.0,10.0,-1.125)"><text id="ProcessOnText1146" fill="#000000" font-size="13" x="60.375" y="13.325" font-family="微软雅黑" font-weight="normal" font-style="normal" text-decoration="none" family="微软雅黑" text-anchor="middle" size="13">生成Code，设置某</text><text id="ProcessOnText1147" fill="#000000" font-size="13" x="60.375" y="29.575" font-family="微软雅黑" font-weight="normal" font-style="normal" text-decoration="none" family="微软雅黑" text-anchor="middle" size="13">台设备的游戏已经付</text><text id="ProcessOnText1148" fill="#000000" font-size="13" x="60.375" y="45.825" font-family="微软雅黑" font-weight="normal" font-style="normal" text-decoration="none" family="微软雅黑" text-anchor="middle" size="13">费可以继续游戏</text></g></g><g id="ProcessOnG1149"><path id="ProcessOnPath1150" d="M822.25 852.0L790.0625 852.0L790.0625 852.0L773.1110679774998 852.0" stroke="#323232" stroke-width="2.0" stroke-dasharray="none" fill="none" marker-end="url(#ProcessOnMarker1151)"/><g id="ProcessOnG1153" transform="matrix(1.0,0.0,0.0,1.0,797.6805339887499,843.875)"><path id="ProcessOnPath1154" d="M0 0H58.0V16.25H0Z" fill="#fff" transform="matrix(1.0,0.0,0.0,1.0,-29.0,0.0)"/><text id="ProcessOnText1155" fill="#000000" font-size="13" x="0.0" y="13.325" font-family="微软雅黑" font-weight="normal" font-style="normal" text-decoration="none" family="微软雅黑" text-anchor="middle" size="13">获取Code</text></g></g><g id="ProcessOnG1156"><path id="ProcessOnPath1157" d="M523.75 363.2751736111111L567.625 363.2751736111111L567.625 363.2751736111111L596.2639320225002 363.2751736111111" stroke="#323232" stroke-width="2.0" stroke-dasharray="none" fill="none" marker-end="url(#ProcessOnMarker1158)"/></g><g id="ProcessOnG1160" transform="matrix(1.0,0.0,0.0,1.0,611.5,339.0)" opacity="1.0"><path id="ProcessOnPath1161" d="M0.0 0.0L150.0 0.0L150.0 48.55034722222223L0.0 48.55034722222223Z" stroke="#99ccff" stroke-width="2.0" stroke-dasharray="none" opacity="1.0" fill="#99ccff"/><g id="ProcessOnG1162" transform="matrix(1.0,0.0,0.0,1.0,10.0,-0.09982638888888573)"><text id="ProcessOnText1163" fill="#000000" font-size="13" x="64.0" y="13.325" font-family="微软雅黑" font-weight="normal" font-style="normal" text-decoration="none" family="微软雅黑" text-anchor="middle" size="13">记录某台设备的某个</text><text id="ProcessOnText1164" fill="#000000" font-size="13" x="64.0" y="29.575" font-family="微软雅黑" font-weight="normal" font-style="normal" text-decoration="none" family="微软雅黑" text-anchor="middle" size="13">游戏需要付费才能继</text><text id="ProcessOnText1165" fill="#000000" font-size="13" x="64.0" y="45.825" font-family="微软雅黑" font-weight="normal" font-style="normal" text-decoration="none" family="微软雅黑" text-anchor="middle" size="13">续游戏</text></g></g><g id="ProcessOnG1166"><path id="ProcessOnPath1167" d="M686.5 875.25L686.5 929.125L807.0139320225002 929.125" stroke="#323232" stroke-width="2.0" stroke-dasharray="none" fill="none" marker-end="url(#ProcessOnMarker1168)"/><g id="ProcessOnG1170" transform="matrix(1.0,0.0,0.0,1.0,719.8194660112501,921.0)"><path id="ProcessOnPath1171" d="M0 0H58.0V16.25H0Z" fill="#fff" transform="matrix(1.0,0.0,0.0,1.0,-29.0,0.0)"/><text id="ProcessOnText1172" fill="#000000" font-size="13" x="0.0" y="13.325" font-family="微软雅黑" font-weight="normal" font-style="normal" text-decoration="none" family="微软雅黑" text-anchor="middle" size="13">发送Code</text></g></g><g id="ProcessOnG1173" transform="matrix(1.0,0.0,0.0,1.0,822.25,904.0)" opacity="1.0"><path id="ProcessOnPath1174" d="M0.0 0.0L134.0 0.0L134.0 50.25L0.0 50.25Z" stroke="#99ccff" stroke-width="2.0" stroke-dasharray="none" opacity="1.0" fill="#99ccff"/><g id="ProcessOnG1175" transform="matrix(1.0,0.0,0.0,1.0,10.0,0.75)"><text id="ProcessOnText1176" fill="#000000" font-size="13" x="56.0" y="13.325" font-family="微软雅黑" font-weight="normal" font-style="normal" text-decoration="none" family="微软雅黑" text-anchor="middle" size="13">服务器获得code,将</text><text id="ProcessOnText1177" fill="#000000" font-size="13" x="56.0" y="29.575" font-family="微软雅黑" font-weight="normal" font-style="normal" text-decoration="none" family="微软雅黑" text-anchor="middle" size="13">code结果和付费信</text><text id="ProcessOnText1178" fill="#000000" font-size="13" x="56.0" y="45.825" font-family="微软雅黑" font-weight="normal" font-style="normal" text-decoration="none" family="微软雅黑" text-anchor="middle" size="13">息推送给用户</text></g></g><g id="ProcessOnG1179"><path id="ProcessOnPath1180" d="M889.25 954.25L889.25 981.0L310.2360679774998 981.0" stroke="#323232" stroke-width="2.0" stroke-dasharray="none" fill="none" marker-end="url(#ProcessOnMarker1181)"/><g id="ProcessOnG1183" transform="matrix(1.0,0.0,0.0,1.0,613.1180339887499,972.875)"><path id="ProcessOnPath1184" d="M0 0H95.0V16.25H0Z" fill="#fff" transform="matrix(1.0,0.0,0.0,1.0,-47.5,0.0)"/><text id="ProcessOnText1185" fill="#000000" font-size="13" x="0.0" y="13.325" font-family="微软雅黑" font-weight="normal" font-style="normal" text-decoration="none" family="微软雅黑" text-anchor="middle" size="13">公众号推送code</text></g></g><g id="ProcessOnG1186" transform="matrix(1.0,0.0,0.0,1.0,183.0,960.5)" opacity="1.0"><path id="ProcessOnPath1187" d="M13.666666666666666 0.0L98.33333333333333 0.0C116.55555555555556 0.0 116.55555555555556 41.0 98.33333333333333 41.0L13.666666666666666 41.0C-4.555555555555555 41.0 -4.555555555555555 0.0 13.666666666666666 0.0Z" stroke="#4d9900" stroke-width="2.0" stroke-dasharray="none" opacity="1.0" fill="#4d9900"/><g id="ProcessOnG1188" transform="matrix(1.0,0.0,0.0,1.0,10.0,12.375)"><text id="ProcessOnText1189" fill="#000000" font-size="13" x="45.0" y="13.325" font-family="微软雅黑" font-weight="normal" font-style="normal" text-decoration="none" family="微软雅黑" text-anchor="middle" size="13">获得code</text></g></g><g id="ProcessOnG1190"><path id="ProcessOnPath1191" d="M239.0 1001.5L239.0 1136.0L377.5139320225002 1136.0" stroke="#323232" stroke-width="2.0" stroke-dasharray="none" fill="none" marker-end="url(#ProcessOnMarker1192)"/><g id="ProcessOnG1194" transform="matrix(1.0,0.0,0.0,1.0,241.0069660112501,1127.875)"><path id="ProcessOnPath1195" d="M0 0H56.00000000000003V16.25H0Z" fill="#fff" transform="matrix(1.0,0.0,0.0,1.0,-28.000000000000014,0.0)"/><text id="ProcessOnText1196" fill="#000000" font-size="13" x="0.0" y="13.325" font-family="微软雅黑" font-weight="normal" font-style="normal" text-decoration="none" family="微软雅黑" text-anchor="middle" size="13">输入code</text></g></g><g id="ProcessOnG1197" transform="matrix(1.0,0.0,0.0,1.0,392.75,1111.724826388889)" opacity="1.0"><path id="ProcessOnPath1198" d="M0.0 0.0L150.0 0.0L150.0 48.55034722222223L0.0 48.55034722222223Z" stroke="#99ccff" stroke-width="2.0" stroke-dasharray="none" opacity="1.0" fill="#99ccff"/><g id="ProcessOnG1199" transform="matrix(1.0,0.0,0.0,1.0,10.0,8.025173611111114)"><text id="ProcessOnText1200" fill="#000000" font-size="13" x="64.0" y="13.325" font-family="微软雅黑" font-weight="normal" font-style="normal" text-decoration="none" family="微软雅黑" text-anchor="middle" size="13">向付费服务器验证Co</text><text id="ProcessOnText1201" fill="#000000" font-size="13" x="64.0" y="29.575" font-family="微软雅黑" font-weight="normal" font-style="normal" text-decoration="none" family="微软雅黑" text-anchor="middle" size="13">de合法性</text></g></g><g id="ProcessOnG1202"><path id="ProcessOnPath1203" d="M542.75 1136.0L594.15 1136.0L594.15 1130.6375868055557L630.3139320225001 1130.6375868055557" stroke="#323232" stroke-width="2.0" stroke-dasharray="none" fill="none" marker-end="url(#ProcessOnMarker1204)"/><g id="ProcessOnG1206" transform="matrix(1.0,0.0,0.0,1.0,589.2131726084722,1127.875)"><path id="ProcessOnPath1207" d="M0 0H56.0V16.25H0Z" fill="#fff" transform="matrix(1.0,0.0,0.0,1.0,-28.0,0.0)"/><text id="ProcessOnText1208" fill="#000000" font-size="13" x="0.0" y="13.325" font-family="微软雅黑" font-weight="normal" font-style="normal" text-decoration="none" family="微软雅黑" text-anchor="middle" size="13">验证code</text></g></g><g id="ProcessOnG1209"><path id="ProcessOnPath1210" d="M930.2 742.0L971.5 742.0L971.5 656.0L956.7360679774998 656.0" stroke="#323232" stroke-width="2.0" stroke-dasharray="none" fill="none" marker-end="url(#ProcessOnMarker1211)"/><g id="ProcessOnG1213" transform="matrix(1.0,0.0,0.0,1.0,971.5,704.14303398875)"><path id="ProcessOnPath1214" d="M0 0H13.0V16.25H0Z" fill="#fff" transform="matrix(1.0,0.0,0.0,1.0,-6.5,0.0)"/><text id="ProcessOnText1215" fill="#000000" font-size="13" x="0.0" y="13.325" font-family="微软雅黑" font-weight="normal" font-style="normal" text-decoration="none" family="微软雅黑" text-anchor="middle" size="13">否</text></g></g><g id="ProcessOnG1216" transform="matrix(1.0,0.0,0.0,1.0,645.55,1101.0)" opacity="1.0"><path id="ProcessOnPath1217" d="M0.0 29.637586805555543L40.950000000000045 0.0L81.90000000000009 29.637586805555543L40.950000000000045 59.275173611111086L0.0 29.637586805555543Z" stroke="#ff8000" stroke-width="2.0" stroke-dasharray="none" opacity="1.0" fill="#ff8000"/><g id="ProcessOnG1218" transform="matrix(1.0,0.0,0.0,1.0,10.0,5.262586805555543)"><text id="ProcessOnText1219" fill="#000000" font-size="13" x="29.950000000000045" y="13.325" font-family="微软雅黑" font-weight="normal" font-style="normal" text-decoration="none" family="微软雅黑" text-anchor="middle" size="13">合法&amp;&amp;</text><text id="ProcessOnText1220" fill="#000000" font-size="13" x="29.950000000000045" y="29.575" font-family="微软雅黑" font-weight="normal" font-style="normal" text-decoration="none" family="微软雅黑" text-anchor="middle" size="13">已付费标</text><text id="ProcessOnText1221" fill="#000000" font-size="13" x="29.950000000000045" y="45.825" font-family="微软雅黑" font-weight="normal" font-style="normal" text-decoration="none" family="微软雅黑" text-anchor="middle" size="13">识为True</text></g></g><g id="ProcessOnG1222" transform="matrix(1.0,0.0,0.0,1.0,392.75,1248.724826388889)" opacity="1.0"><path id="ProcessOnPath1223" d="M0.0 0.0L150.0 0.0L150.0 48.55034722222223L0.0 48.55034722222223Z" stroke="#99ccff" stroke-width="2.0" stroke-dasharray="none" opacity="1.0" fill="#99ccff"/><g id="ProcessOnG1224" transform="matrix(1.0,0.0,0.0,1.0,10.0,8.025173611111114)"><text id="ProcessOnText1225" fill="#000000" font-size="13" x="64.0" y="13.325" font-family="微软雅黑" font-weight="normal" font-style="normal" text-decoration="none" family="微软雅黑" text-anchor="middle" size="13">关闭对话框，继续该</text><text id="ProcessOnText1226" fill="#000000" font-size="13" x="64.0" y="29.575" font-family="微软雅黑" font-weight="normal" font-style="normal" text-decoration="none" family="微软雅黑" text-anchor="middle" size="13">游戏</text></g></g><g id="ProcessOnG1227" transform="matrix(1.0,0.0,0.0,1.0,615.125,1198.75)" opacity="1.0"><path id="ProcessOnPath1228" d="M0.0 0.0L142.75 0.0L142.75 46.5L0.0 46.5Z" stroke="#99ccff" stroke-width="2.0" stroke-dasharray="none" opacity="1.0" fill="#99ccff"/><g id="ProcessOnG1229" transform="matrix(1.0,0.0,0.0,1.0,10.0,-1.125)"><text id="ProcessOnText1230" fill="#000000" font-size="13" x="60.375" y="13.325" font-family="微软雅黑" font-weight="normal" font-style="normal" text-decoration="none" family="微软雅黑" text-anchor="middle" size="13">记录某台设备上面的</text><text id="ProcessOnText1231" fill="#000000" font-size="13" x="60.375" y="29.575" font-family="微软雅黑" font-weight="normal" font-style="normal" text-decoration="none" family="微软雅黑" text-anchor="middle" size="13">某个游戏付费成功，</text><text id="ProcessOnText1232" fill="#000000" font-size="13" x="60.375" y="45.825" font-family="微软雅黑" font-weight="normal" font-style="normal" text-decoration="none" family="微软雅黑" text-anchor="middle" size="13">可以继续</text></g></g><g id="ProcessOnG1233"><path id="ProcessOnPath1234" d="M686.5000000000001 1160.275173611111L686.5000000000001 1179.5125868055557L686.5 1179.5125868055557L686.5 1183.5139320225003" stroke="#323232" stroke-width="2.0" stroke-dasharray="none" fill="none" marker-end="url(#ProcessOnMarker1235)"/><g id="ProcessOnG1237" transform="matrix(1.0,0.0,0.0,1.0,686.5000000000001,1163.7695528168058)"><path id="ProcessOnPath1238" d="M0 0H13.0V16.25H0Z" fill="#fff" transform="matrix(1.0,0.0,0.0,1.0,-6.5,0.0)"/><text id="ProcessOnText1239" fill="#000000" font-size="13" x="0.0" y="13.325" font-family="微软雅黑" font-weight="normal" font-style="normal" text-decoration="none" family="微软雅黑" text-anchor="middle" size="13">是</text></g></g><g id="ProcessOnG1240"><path id="ProcessOnPath1241" d="M686.5 1245.25L686.5 1273.0L557.9860679774998 1273.0" stroke="#323232" stroke-width="2.0" stroke-dasharray="none" fill="none" marker-end="url(#ProcessOnMarker1242)"/></g><g id="ProcessOnG1244" transform="matrix(1.0,0.0,0.0,1.0,392.75,1021.7248263888889)" opacity="1.0"><path id="ProcessOnPath1245" d="M0.0 0.0L150.0 0.0L150.0 48.55034722222223L0.0 48.55034722222223Z" stroke="#99ccff" stroke-width="2.0" stroke-dasharray="none" opacity="1.0" fill="#99ccff"/><g id="ProcessOnG1246" transform="matrix(1.0,0.0,0.0,1.0,10.0,8.025173611111114)"><text id="ProcessOnText1247" fill="#000000" font-size="13" x="64.0" y="13.325" font-family="微软雅黑" font-weight="normal" font-style="normal" text-decoration="none" family="微软雅黑" text-anchor="middle" size="13">继续显示输入code对</text><text id="ProcessOnText1248" fill="#000000" font-size="13" x="64.0" y="29.575" font-family="微软雅黑" font-weight="normal" font-style="normal" text-decoration="none" family="微软雅黑" text-anchor="middle" size="13">话框</text></g></g><g id="ProcessOnG1249"><path id="ProcessOnPath1250" d="M686.5000000000001 1101.0L686.5000000000001 1046.0L557.9860679774998 1046.0" stroke="#323232" stroke-width="2.0" stroke-dasharray="none" fill="none" marker-end="url(#ProcessOnMarker1251)"/><g id="ProcessOnG1253" transform="matrix(1.0,0.0,0.0,1.0,649.74303398875,1037.875)"><path id="ProcessOnPath1254" d="M0 0H13.0V16.25H0Z" fill="#fff" transform="matrix(1.0,0.0,0.0,1.0,-6.5,0.0)"/><text id="ProcessOnText1255" fill="#000000" font-size="13" x="0.0" y="13.325" font-family="微软雅黑" font-weight="normal" font-style="normal" text-decoration="none" family="微软雅黑" text-anchor="middle" size="13">否</text></g></g></g></g></svg>